<svg xmlns="http://www.w3.org/2000/svg" viewBox="0 0 200 200" fill="none">
  <rect width="200" height="200" rx="16" fill="#FFF5F0"/>
  <circle cx="100" cy="90" r="50" fill="#FFE8DE"/>
  <path d="M75 80 C75 65, 125 65, 125 80" stroke="#FF6034" stroke-width="3" fill="none" stroke-linecap="round"/>
  <ellipse cx="100" cy="95" rx="40" ry="25" fill="#FF6034" opacity="0.15"/>
  <path d="M60 95 C60 95, 65 120, 100 120 C135 120, 140 95, 140 95" stroke="#FF6034" stroke-width="3" fill="none" stroke-linecap="round"/>
  <line x1="60" y1="95" x2="140" y2="95" stroke="#FF6034" stroke-width="3" stroke-linecap="round"/>
  <circle cx="85" cy="80" r="4" fill="#FF6034" opacity="0.5"/>
  <circle cx="100" cy="75" r="3" fill="#FF6034" opacity="0.4"/>
  <circle cx="115" cy="80" r="4" fill="#FF6034" opacity="0.5"/>
  <path d="M88 55 C88 50, 92 48, 92 53" stroke="#FF6034" stroke-width="2" fill="none" opacity="0.4" stroke-linecap="round"/>
  <path d="M100 52 C100 47, 104 45, 104 50" stroke="#FF6034" stroke-width="2" fill="none" opacity="0.4" stroke-linecap="round"/>
  <path d="M112 55 C112 50, 116 48, 116 53" stroke="#FF6034" stroke-width="2" fill="none" opacity="0.4" stroke-linecap="round"/>
  <text x="100" y="155" text-anchor="middle" font-family="sans-serif" font-size="14" fill="#FFAA88">暂无图片</text>
</svg>
